<svg xmlns="http://www.w3.org/2000/svg" viewBox="0 0 64 64" width="64" height="64"><title>Fog Dragon</title>
<rect width="64" height="64" rx="14" fill="#f4f6f5"/>
<path d="M33 31q-3-15 13-11 4 9-5 13z" fill="#95bf47" stroke="#008060" stroke-width="1.6" stroke-linejoin="round"/>
<ellipse cx="34" cy="42" rx="16" ry="13" fill="#008060"/>
<ellipse cx="35" cy="46" rx="10" ry="7" fill="#95bf47" opacity=".55"/>
<path d="M48 45q13 2 8-11" fill="none" stroke="#008060" stroke-width="6" stroke-linecap="round"/>
<path d="M53 35l8-7-1 9z" fill="#e3b341"/>
<circle cx="24" cy="27" r="11.5" fill="#008060"/>
<ellipse cx="14" cy="30" rx="6.5" ry="5" fill="#008060"/>
<circle cx="10.5" cy="29" r="1.2" fill="#0d3d30"/>
<path d="M27 17l1.5-8 4 8z" fill="#e3b341"/><path d="M20 17v-6l3.5 6z" fill="#e3b341"/>
<circle cx="21" cy="25" r="3.4" fill="#fff"/><circle cx="20" cy="25" r="1.9" fill="#1a1d1f"/>
<ellipse cx="27" cy="55" rx="5" ry="3" fill="#0d6b56"/><ellipse cx="40" cy="55" rx="5" ry="3" fill="#0d6b56"/>
</svg>
